<svg xmlns="http://www.w3.org/2000/svg" viewBox="0 0 448 512" width="32" height="32" fill="#E1306C">
  <path d="M224,202.66A53.34,53.34,0,1,0,277.34,256,53.38,53.38,0,0,0,224,202.66Zm124.71-41a54,54,0,0,1,15.6,38.29V312a54,54,0,0,1-54,54H138.69a54,54,0,0,1-54-54V200A54,54,0,0,1,100.6,161.63h0a54,54,0,0,1,38.29-15.6H312a54,54,0,0,1,38.29,15.6Zm-21.57,181a34,34,0,0,0,34-34V200a34,34,0,0,0-34-34H138.69a34,34,0,0,0-34,34V312a34,34,0,0,0,34,34ZM224,166a90,90,0,1,1-90,90A90.1,90.1,0,0,1,224,166Zm96-36a18,18,0,1,1-18-18A18,18,0,0,1,320,130Z"></path>
</svg>
