<svg xmlns="http://www.w3.org/2000/svg" viewBox="0 0 512 512" width="32" height="32" fill="#1DA1F2">
  <path d="M459.4 151.7c.3 4.1.3 8.2.3 12.3 0 125.1-95.2 269.2-269.2 269.2-53.6 0-103.5-15.7-145.4-42.6 7.4.9 14.8 1.2 22.5 1.2 44.5 0 85.4-15.1 117.8-40.7-41.5-.9-76.5-28.1-88.7-65.7 5.8.9 11.6 1.5 17.7 1.5 8.4 0 16.8-1.1 24.6-3.2-43.6-8.7-76.5-47.3-76.5-93.6v-1.2c13 7.3 28 11.7 44 12.3-26.1-17.4-43.3-47-43.3-80.6 0-17.4 4.7-33.7 13-47.7 47.4 58.3 118.3 96.6 198.1 100.7-1.5-6.9-2.3-14-2.3-21.2 0-51.6 41.9-93.5 93.5-93.5 26.9 0 51.3 11.4 68.4 29.5 21.2-4.1 41.2-11.9 59.2-22.5-7 21.8-21.8 40.2-41.2 51.6 18.8-2.1 36.6-7.3 53.1-14.6-12.3 18.6-27.9 35-45.7 48.2z"></path>
</svg>
